<svg version="1.1" id="Layer_1" xmlns="http://www.w3.org/2000/svg" xmlns:xlink="http://www.w3.org/1999/xlink" x="0px" y="0px"
	 width="100%" viewBox="0 0 550 543" enable-background="new 0 0 550 543" xml:space="preserve">
<path fill="#000000" opacity="1.000000" stroke="none" 
	d="
M275.000000,544.000000 
	C183.718491,544.000000 92.436996,544.000000 1.000000,544.000000 
	C1.000000,381.644073 1.000000,219.288071 1.408900,56.471195 
	C3.545300,61.881977 4.948123,67.875435 7.092048,73.590897 
	C9.215851,79.252716 11.163930,85.400269 14.906380,89.909500 
	C18.225044,93.908112 23.669003,96.444176 28.583872,98.756226 
	C40.119816,104.182938 51.882252,109.131592 63.586433,114.196503 
	C81.975922,122.154449 100.326004,130.209152 118.816811,137.925659 
	C137.888306,145.884476 157.390671,152.875595 175.167953,163.648712 
	C185.046661,169.635254 192.381882,178.004242 196.229462,188.841873 
	C199.276901,197.425659 201.522720,206.335281 203.538101,215.233047 
	C205.713699,224.838226 207.545410,234.550430 208.913162,244.302078 
	C210.611298,256.409058 211.529068,268.623322 213.058655,280.756592 
	C214.887375,295.262604 217.017029,309.730591 218.995636,324.217834 
	C219.962936,331.300262 220.698349,338.419891 221.870789,345.467438 
	C223.408463,354.710236 225.356934,363.883942 226.978424,373.113739 
	C229.189178,385.697723 230.832382,398.397369 233.494064,410.882172 
	C236.938690,427.039490 240.759552,443.140625 245.141678,459.066956 
	C249.130814,473.565063 253.854889,487.876099 258.702759,502.117126 
	C261.633423,510.726288 265.464752,519.026245 268.800537,527.500916 
	C270.952179,532.967102 272.939209,538.498047 275.000000,544.000000 
M24.974224,156.923050 
	C25.034651,159.080765 24.656668,161.363876 25.231808,163.374344 
	C27.651079,171.831223 30.098339,180.297195 33.023056,188.587799 
	C36.318409,197.929031 40.196758,207.063019 43.715260,216.327499 
	C49.026413,230.312164 57.543652,241.814621 70.150475,249.976532 
	C85.338058,259.809265 102.689552,264.229919 119.844971,268.924072 
	C134.558365,272.950043 149.483795,276.197418 164.228607,280.115997 
	C166.747971,280.785522 170.075287,282.624725 170.878677,284.740326 
	C173.154465,290.733215 174.314896,297.149597 176.312103,304.952026 
	C149.095795,302.427032 123.821136,300.082153 97.467216,297.637177 
	C98.954475,301.189606 99.431168,303.430359 100.668289,305.111542 
	C112.168198,320.739502 123.553207,336.463531 135.512085,351.736481 
	C140.325119,357.883331 146.363708,363.103668 152.102875,368.469330 
	C153.580399,369.850647 156.022003,370.843597 158.046219,370.889465 
	C168.537003,371.127136 179.036774,370.922943 189.531998,371.022980 
	C198.926437,371.112488 200.980026,372.774048 203.253830,381.634308 
	C206.543533,394.453186 206.769196,394.075500 194.205154,398.035004 
	C189.696976,399.455750 185.266144,401.121918 180.002731,402.953552 
	C196.486801,427.127808 213.514465,449.236542 237.346222,465.257202 
	C237.864426,463.579865 237.867233,462.295258 237.536392,461.103241 
	C236.421707,457.087189 234.943207,453.158264 234.046066,449.098297 
	C231.269333,436.532227 228.498199,423.958832 226.095810,411.317780 
	C223.198502,396.072571 220.553482,380.776062 218.041519,365.462036 
	C216.151291,353.938324 214.711273,342.341553 212.947128,330.796204 
	C210.696533,316.067413 208.285934,301.363159 206.012894,286.637726 
	C204.603394,277.506683 203.477402,268.329529 201.936523,259.221741 
	C200.484253,250.637848 199.054672,242.014175 196.874435,233.599930 
	C194.875381,225.884995 192.991882,217.787857 189.072021,211.006866 
	C183.434250,201.254059 174.413101,194.204117 164.418579,188.980362 
	C152.338638,182.666656 140.029678,176.767227 127.650055,171.056534 
	C110.076241,162.949753 92.354759,155.162552 74.682770,147.269287 
	C59.628403,140.545181 44.584988,133.794800 29.467289,127.215591 
	C25.945061,125.682732 22.141424,124.796478 17.869585,123.420151 
	C18.315264,128.462845 18.229155,132.452286 19.097412,136.221909 
	C20.640898,142.923111 22.762575,149.491119 24.974224,156.923050 
z"/>
<path fill="#000000" opacity="1.000000" stroke="none" 
	d="
M551.000000,56.000000 
	C551.000000,218.574387 551.000000,381.148773 551.000000,544.000000 
	C459.977539,544.000000 368.954803,544.000000 277.467773,543.621948 
	C280.767059,533.587463 284.641846,523.972412 288.261932,514.262451 
	C291.660919,505.145416 295.097717,496.022522 297.959015,486.730133 
	C301.301544,475.874908 303.712067,464.730682 307.114197,453.896240 
	C312.323730,437.306061 316.529663,420.517792 319.321259,403.350220 
	C321.002625,393.010010 323.229614,382.759399 324.980438,372.429352 
	C327.116852,359.824036 329.085876,347.188934 330.992126,334.546326 
	C333.724792,316.422760 336.428711,298.293823 338.969086,280.142578 
	C341.108795,264.854218 342.817902,249.504486 345.048401,234.230209 
	C347.257355,219.103699 349.451965,203.917419 355.161682,189.596466 
	C359.404999,178.953491 365.925781,169.475159 376.086365,164.206650 
	C392.971924,155.451111 410.420380,147.744278 427.835846,140.058228 
	C444.678345,132.625046 461.830292,125.896263 478.749969,118.633667 
	C493.703552,112.214989 508.628540,105.709702 523.365051,98.812935 
	C532.292480,94.634842 540.484314,89.405983 543.093262,78.695618 
	C544.795410,71.708061 546.971436,64.833443 549.058838,57.945702 
	C549.293274,57.172081 550.333435,56.642658 551.000000,56.000000 
M444.032959,315.622528 
	C446.904388,311.708038 450.010559,307.940765 452.582703,303.838623 
	C455.277832,299.540283 454.273590,297.790344 449.272217,298.064667 
	C441.595459,298.485718 433.940063,299.311066 426.279510,300.007812 
	C419.111755,300.659698 411.951263,301.391388 404.783630,302.044769 
	C395.329376,302.906677 385.871246,303.726410 375.431213,304.651428 
	C376.809998,299.077576 378.193726,294.666809 378.947998,290.150909 
	C380.015930,283.757324 383.967926,280.495178 389.840790,279.042694 
	C399.515594,276.649872 409.172455,274.163391 418.907318,272.039307 
	C439.356689,267.577423 459.404724,261.974487 478.143677,252.388458 
	C487.983551,247.354828 495.260651,239.271469 501.474976,230.622452 
	C506.056366,224.246155 508.830475,216.489090 511.906189,209.136581 
	C514.926636,201.916260 517.750610,194.554169 519.876526,187.032608 
	C523.451111,174.385727 526.518311,161.590530 529.578186,148.804886 
	C531.512573,140.721970 533.046021,132.543106 534.992859,123.298286 
	C531.554565,124.124733 529.625732,124.347305 527.891357,125.049866 
	C522.413879,127.268631 516.987183,129.617325 511.580536,132.005524 
	C495.323456,139.186508 479.028229,146.285049 462.855591,153.652267 
	C446.848267,160.944168 431.101746,168.819412 414.997894,175.885086 
	C401.797791,181.676743 388.579437,187.368011 376.996094,196.064636 
	C370.020813,201.301559 364.330750,207.449539 360.744476,215.957886 
	C355.964966,227.296982 354.730835,239.290466 352.120300,251.015091 
	C349.873688,261.105133 348.677917,271.428497 346.995819,281.645142 
	C345.681122,289.630157 344.215790,297.592407 343.037567,305.597168 
	C342.112823,311.879883 341.712982,318.241058 340.748657,324.516479 
	C338.609619,338.436493 336.298157,352.330475 333.987579,366.223541 
	C332.396301,375.791595 330.776886,385.356689 329.001831,394.891815 
	C327.822083,401.229340 326.361816,407.515137 324.998657,413.817932 
	C321.905182,428.121277 318.800476,442.422241 315.684479,456.720703 
	C315.098755,459.408356 314.439209,462.079956 313.813782,464.758972 
	C314.357361,465.049225 314.900970,465.339447 315.444550,465.629669 
	C338.484222,449.182800 355.536865,427.255676 371.504883,403.699554 
	C369.870972,402.564758 368.854218,401.491913 367.614471,401.061493 
	C362.476593,399.277740 357.303070,397.579071 352.081116,396.060791 
	C347.655548,394.774048 344.852966,392.955963 346.918121,387.582764 
	C348.058472,384.615692 347.819489,381.068054 349.174194,378.249207 
	C350.328857,375.846558 352.526550,373.308258 354.891724,372.288055 
	C357.748474,371.055786 361.264496,371.094818 364.501709,371.049652 
	C374.331238,370.912445 384.164062,371.030029 393.995117,370.966217 
	C395.400116,370.957062 397.311707,370.994171 398.126892,370.163757 
	C406.507721,361.626434 415.110748,353.254761 422.849365,344.154480 
	C430.376434,335.302887 436.967010,325.654968 444.032959,315.622528 
z"/>
<path fill="#FFFFFF" opacity="1.000000" stroke="none" 
	d="
M551.000000,55.532059 
	C550.333435,56.642658 549.293274,57.172081 549.058838,57.945702 
	C546.971436,64.833443 544.795410,71.708061 543.093262,78.695618 
	C540.484314,89.405983 532.292480,94.634842 523.365051,98.812935 
	C508.628540,105.709702 493.703552,112.214989 478.749969,118.633667 
	C461.830292,125.896263 444.678345,132.625046 427.835846,140.058228 
	C410.420380,147.744278 392.971924,155.451111 376.086365,164.206650 
	C365.925781,169.475159 359.404999,178.953491 355.161682,189.596466 
	C349.451965,203.917419 347.257355,219.103699 345.048401,234.230209 
	C342.817902,249.504486 341.108795,264.854218 338.969086,280.142578 
	C336.428711,298.293823 333.724792,316.422760 330.992126,334.546326 
	C329.085876,347.188934 327.116852,359.824036 324.980438,372.429352 
	C323.229614,382.759399 321.002625,393.010010 319.321259,403.350220 
	C316.529663,420.517792 312.323730,437.306061 307.114197,453.896240 
	C303.712067,464.730682 301.301544,475.874908 297.959015,486.730133 
	C295.097717,496.022522 291.660919,505.145416 288.261932,514.262451 
	C284.641846,523.972412 280.767059,533.587463 277.001740,543.621948 
	C276.555542,544.000000 276.111115,544.000000 275.333313,544.000000 
	C272.939209,538.498047 270.952179,532.967102 268.800537,527.500916 
	C265.464752,519.026245 261.633423,510.726288 258.702759,502.117126 
	C253.854889,487.876099 249.130814,473.565063 245.141678,459.066956 
	C240.759552,443.140625 236.938690,427.039490 233.494064,410.882172 
	C230.832382,398.397369 229.189178,385.697723 226.978424,373.113739 
	C225.356934,363.883942 223.408463,354.710236 221.870789,345.467438 
	C220.698349,338.419891 219.962936,331.300262 218.995636,324.217834 
	C217.017029,309.730591 214.887375,295.262604 213.058655,280.756592 
	C211.529068,268.623322 210.611298,256.409058 208.913162,244.302078 
	C207.545410,234.550430 205.713699,224.838226 203.538101,215.233047 
	C201.522720,206.335281 199.276901,197.425659 196.229462,188.841873 
	C192.381882,178.004242 185.046661,169.635254 175.167953,163.648712 
	C157.390671,152.875595 137.888306,145.884476 118.816811,137.925659 
	C100.326004,130.209152 81.975922,122.154449 63.586433,114.196503 
	C51.882252,109.131592 40.119816,104.182938 28.583872,98.756226 
	C23.669003,96.444176 18.225044,93.908112 14.906380,89.909500 
	C11.163930,85.400269 9.215851,79.252716 7.092048,73.590897 
	C4.948123,67.875435 3.545300,61.881977 1.408900,56.005154 
	C1.000000,50.311958 1.000000,44.623920 1.430128,38.467949 
	C7.584567,38.999527 13.337543,39.859051 19.027903,41.024342 
	C37.344006,44.775173 55.635895,48.644138 73.939262,52.457260 
	C89.245705,55.646038 104.532066,58.937195 119.869614,61.969078 
	C136.031174,65.163849 152.298706,67.840019 168.415970,71.236198 
	C182.640396,74.233528 196.944122,75.463043 211.426056,74.943398 
	C212.597870,74.901344 214.243973,74.399933 214.819489,73.541786 
	C220.326691,65.330048 225.231018,56.683601 231.116638,48.762474 
	C242.538467,33.390457 254.489105,18.411547 266.184296,3.241742 
	C266.647003,2.641590 266.736572,1.753781 267.000000,1.000000 
	C272.022095,1.000000 277.044189,1.000000 282.244934,1.297178 
	C286.014984,4.632411 290.090607,7.259889 293.091461,10.798743 
	C298.426575,17.090387 303.238281,23.842997 308.038818,30.567047 
	C316.454712,42.354988 324.823456,54.180893 332.968079,66.156738 
	C338.591705,74.425652 346.115295,77.605972 355.851746,75.978516 
	C367.818970,73.978180 379.822540,72.174492 391.748322,69.952492 
	C406.326569,67.236290 420.842651,64.185341 435.381348,61.258030 
	C445.649841,59.190514 455.922577,57.141754 466.173279,54.988724 
	C482.876495,51.480412 499.538208,47.769833 516.265686,44.382877 
	C527.801636,42.047085 539.419006,40.113396 551.000000,38.000000 
	C551.000000,43.688042 551.000000,49.376080 551.000000,55.532059 
M294.001617,437.812134 
	C295.668304,432.459747 297.687714,427.188171 298.935974,421.739929 
	C302.781738,404.954834 306.544647,388.144653 309.930817,371.262238 
	C312.601257,357.948181 314.781830,344.531433 316.952393,331.123444 
	C318.019012,324.534760 318.488220,317.851654 319.371613,311.230499 
	C320.853882,300.120544 322.619324,289.045746 323.932739,277.916901 
	C324.645386,271.878754 324.404327,265.730591 325.060303,259.682678 
	C326.553680,245.914001 328.585938,232.200836 329.920044,218.418732 
	C330.981384,207.454483 331.546204,196.429306 331.947388,185.417191 
	C332.490570,170.507629 332.952881,155.582703 332.848450,140.668579 
	C332.810669,135.273178 331.395752,129.794449 329.987671,124.519699 
	C326.315155,110.762749 318.912079,98.757889 311.349457,86.908134 
	C307.963867,81.603310 304.062958,76.611618 300.193909,71.634903 
	C294.994385,64.946823 290.307831,57.637005 284.131073,51.981014 
	C273.432831,42.184723 274.201447,44.605888 266.919067,52.611744 
	C261.953583,58.070484 256.776276,63.401741 252.394104,69.309540 
	C246.771545,76.889511 241.714905,84.904503 236.676819,92.897446 
	C233.265305,98.309845 229.613800,103.738007 227.317032,109.644196 
	C224.378830,117.199875 222.179657,125.143005 220.627686,133.107346 
	C219.286072,139.992081 218.675354,147.154083 218.837296,154.168243 
	C219.152802,167.833740 220.229645,181.481827 221.002701,195.136475 
	C221.318924,200.721878 221.495163,206.321869 222.029602,211.886963 
	C223.607025,228.312790 225.219788,244.736847 227.029587,261.138336 
	C228.887329,277.974365 230.921692,294.791901 233.012939,311.600830 
	C234.918976,326.921021 236.391251,342.330872 239.160873,357.499237 
	C242.948502,378.242920 247.231323,398.933044 252.334412,419.388550 
	C256.823517,437.383087 262.626831,455.055786 268.069122,472.803345 
	C270.092987,479.403168 272.739594,485.811981 275.616364,493.721405 
	C276.984802,491.252258 277.651978,490.386841 277.978821,489.407867 
	C282.686035,475.309509 287.385315,461.208221 291.987030,447.075226 
	C292.875916,444.345184 293.340027,441.476898 294.001617,437.812134 
z"/>
<path fill="#000000" opacity="1.000000" stroke="none" 
	d="
M551.000000,37.531342 
	C539.419006,40.113396 527.801636,42.047085 516.265686,44.382877 
	C499.538208,47.769833 482.876495,51.480412 466.173279,54.988724 
	C455.922577,57.141754 445.649841,59.190514 435.381348,61.258030 
	C420.842651,64.185341 406.326569,67.236290 391.748322,69.952492 
	C379.822540,72.174492 367.818970,73.978180 355.851746,75.978516 
	C346.115295,77.605972 338.591705,74.425652 332.968079,66.156738 
	C324.823456,54.180893 316.454712,42.354988 308.038818,30.567047 
	C303.238281,23.842997 298.426575,17.090387 293.091461,10.798743 
	C290.090607,7.259889 286.014984,4.632411 282.711792,1.297178 
	C372.333344,1.000000 461.666687,1.000000 551.000000,1.000000 
	C551.000000,13.097184 551.000000,25.079933 551.000000,37.531342 
z"/>
<path fill="#000000" opacity="1.000000" stroke="none" 
	d="
M266.531342,1.000000 
	C266.736572,1.753781 266.647003,2.641590 266.184296,3.241742 
	C254.489105,18.411547 242.538467,33.390457 231.116638,48.762474 
	C225.231018,56.683601 220.326691,65.330048 214.819489,73.541786 
	C214.243973,74.399933 212.597870,74.901344 211.426056,74.943398 
	C196.944122,75.463043 182.640396,74.233528 168.415970,71.236198 
	C152.298706,67.840019 136.031174,65.163849 119.869614,61.969078 
	C104.532066,58.937195 89.245705,55.646038 73.939262,52.457260 
	C55.635895,48.644138 37.344006,44.775173 19.027903,41.024342 
	C13.337543,39.859051 7.584567,38.999527 1.430128,38.000008 
	C1.000000,25.684496 1.000000,13.368991 1.000000,1.000000 
	C89.354218,1.000000 177.708450,1.000000 266.531342,1.000000 
z"/>
<path fill="#FFFFFF" opacity="1.000000" stroke="none" 
	d="
M24.808308,156.518951 
	C22.762575,149.491119 20.640898,142.923111 19.097412,136.221909 
	C18.229155,132.452286 18.315264,128.462845 17.869585,123.420151 
	C22.141424,124.796478 25.945061,125.682732 29.467289,127.215591 
	C44.584988,133.794800 59.628403,140.545181 74.682770,147.269287 
	C92.354759,155.162552 110.076241,162.949753 127.650055,171.056534 
	C140.029678,176.767227 152.338638,182.666656 164.418579,188.980362 
	C174.413101,194.204117 183.434250,201.254059 189.072021,211.006866 
	C192.991882,217.787857 194.875381,225.884995 196.874435,233.599930 
	C199.054672,242.014175 200.484253,250.637848 201.936523,259.221741 
	C203.477402,268.329529 204.603394,277.506683 206.012894,286.637726 
	C208.285934,301.363159 210.696533,316.067413 212.947128,330.796204 
	C214.711273,342.341553 216.151291,353.938324 218.041519,365.462036 
	C220.553482,380.776062 223.198502,396.072571 226.095810,411.317780 
	C228.498199,423.958832 231.269333,436.532227 234.046066,449.098297 
	C234.943207,453.158264 236.421707,457.087189 237.536392,461.103241 
	C237.867233,462.295258 237.864426,463.579865 237.346222,465.257202 
	C213.514465,449.236542 196.486801,427.127808 180.002731,402.953552 
	C185.266144,401.121918 189.696976,399.455750 194.205154,398.035004 
	C206.769196,394.075500 206.543533,394.453186 203.253830,381.634308 
	C200.980026,372.774048 198.926437,371.112488 189.531998,371.022980 
	C179.036774,370.922943 168.537003,371.127136 158.046219,370.889465 
	C156.022003,370.843597 153.580399,369.850647 152.102875,368.469330 
	C146.363708,363.103668 140.325119,357.883331 135.512085,351.736481 
	C123.553207,336.463531 112.168198,320.739502 100.668289,305.111542 
	C99.431168,303.430359 98.954475,301.189606 97.467216,297.637177 
	C123.821136,300.082153 149.095795,302.427032 176.312103,304.952026 
	C174.314896,297.149597 173.154465,290.733215 170.878677,284.740326 
	C170.075287,282.624725 166.747971,280.785522 164.228607,280.115997 
	C149.483795,276.197418 134.558365,272.950043 119.844971,268.924072 
	C102.689552,264.229919 85.338058,259.809265 70.150475,249.976532 
	C57.543652,241.814621 49.026413,230.312164 43.715260,216.327499 
	C40.196758,207.063019 36.318409,197.929031 33.023056,188.587799 
	C30.098339,180.297195 27.651079,171.831223 25.231808,163.374344 
	C24.656668,161.363876 25.034651,159.080765 24.808308,156.518951 
z"/>
<path fill="#FFFFFF" opacity="1.000000" stroke="none" 
	d="
M444.000885,315.989624 
	C436.967010,325.654968 430.376434,335.302887 422.849365,344.154480 
	C415.110748,353.254761 406.507721,361.626434 398.126892,370.163757 
	C397.311707,370.994171 395.400116,370.957062 393.995117,370.966217 
	C384.164062,371.030029 374.331238,370.912445 364.501709,371.049652 
	C361.264496,371.094818 357.748474,371.055786 354.891724,372.288055 
	C352.526550,373.308258 350.328857,375.846558 349.174194,378.249207 
	C347.819489,381.068054 348.058472,384.615692 346.918121,387.582764 
	C344.852966,392.955963 347.655548,394.774048 352.081116,396.060791 
	C357.303070,397.579071 362.476593,399.277740 367.614471,401.061493 
	C368.854218,401.491913 369.870972,402.564758 371.504883,403.699554 
	C355.536865,427.255676 338.484222,449.182800 315.444550,465.629669 
	C314.900970,465.339447 314.357361,465.049225 313.813782,464.758972 
	C314.439209,462.079956 315.098755,459.408356 315.684479,456.720703 
	C318.800476,442.422241 321.905182,428.121277 324.998657,413.817932 
	C326.361816,407.515137 327.822083,401.229340 329.001831,394.891815 
	C330.776886,385.356689 332.396301,375.791595 333.987579,366.223541 
	C336.298157,352.330475 338.609619,338.436493 340.748657,324.516479 
	C341.712982,318.241058 342.112823,311.879883 343.037567,305.597168 
	C344.215790,297.592407 345.681122,289.630157 346.995819,281.645142 
	C348.677917,271.428497 349.873688,261.105133 352.120300,251.015091 
	C354.730835,239.290466 355.964966,227.296982 360.744476,215.957886 
	C364.330750,207.449539 370.020813,201.301559 376.996094,196.064636 
	C388.579437,187.368011 401.797791,181.676743 414.997894,175.885086 
	C431.101746,168.819412 446.848267,160.944168 462.855591,153.652267 
	C479.028229,146.285049 495.323456,139.186508 511.580536,132.005524 
	C516.987183,129.617325 522.413879,127.268631 527.891357,125.049866 
	C529.625732,124.347305 531.554565,124.124733 534.992859,123.298286 
	C533.046021,132.543106 531.512573,140.721970 529.578186,148.804886 
	C526.518311,161.590530 523.451111,174.385727 519.876526,187.032608 
	C517.750610,194.554169 514.926636,201.916260 511.906189,209.136581 
	C508.830475,216.489090 506.056366,224.246155 501.474976,230.622452 
	C495.260651,239.271469 487.983551,247.354828 478.143677,252.388458 
	C459.404724,261.974487 439.356689,267.577423 418.907318,272.039307 
	C409.172455,274.163391 399.515594,276.649872 389.840790,279.042694 
	C383.967926,280.495178 380.015930,283.757324 378.947998,290.150909 
	C378.193726,294.666809 376.809998,299.077576 375.431213,304.651428 
	C385.871246,303.726410 395.329376,302.906677 404.783630,302.044769 
	C411.951263,301.391388 419.111755,300.659698 426.279510,300.007812 
	C433.940063,299.311066 441.595459,298.485718 449.272217,298.064667 
	C454.273590,297.790344 455.277832,299.540283 452.582703,303.838623 
	C450.010559,307.940765 446.904388,311.708038 444.000885,315.989624 
z"/>
<path fill="#000000" opacity="1.000000" stroke="none" 
	d="
M294.000854,438.242249 
	C293.340027,441.476898 292.875916,444.345184 291.987030,447.075226 
	C287.385315,461.208221 282.686035,475.309509 277.978821,489.407867 
	C277.651978,490.386841 276.984802,491.252258 275.616364,493.721405 
	C272.739594,485.811981 270.092987,479.403168 268.069122,472.803345 
	C262.626831,455.055786 256.823517,437.383087 252.334412,419.388550 
	C247.231323,398.933044 242.948502,378.242920 239.160873,357.499237 
	C236.391251,342.330872 234.918976,326.921021 233.012939,311.600830 
	C230.921692,294.791901 228.887329,277.974365 227.029587,261.138336 
	C225.219788,244.736847 223.607025,228.312790 222.029602,211.886963 
	C221.495163,206.321869 221.318924,200.721878 221.002701,195.136475 
	C220.229645,181.481827 219.152802,167.833740 218.837296,154.168243 
	C218.675354,147.154083 219.286072,139.992081 220.627686,133.107346 
	C222.179657,125.143005 224.378830,117.199875 227.317032,109.644196 
	C229.613800,103.738007 233.265305,98.309845 236.676819,92.897446 
	C241.714905,84.904503 246.771545,76.889511 252.394104,69.309540 
	C256.776276,63.401741 261.953583,58.070484 266.919067,52.611744 
	C274.201447,44.605888 273.432831,42.184723 284.131073,51.981014 
	C290.307831,57.637005 294.994385,64.946823 300.193909,71.634903 
	C304.062958,76.611618 307.963867,81.603310 311.349457,86.908134 
	C318.912079,98.757889 326.315155,110.762749 329.987671,124.519699 
	C331.395752,129.794449 332.810669,135.273178 332.848450,140.668579 
	C332.952881,155.582703 332.490570,170.507629 331.947388,185.417191 
	C331.546204,196.429306 330.981384,207.454483 329.920044,218.418732 
	C328.585938,232.200836 326.553680,245.914001 325.060303,259.682678 
	C324.404327,265.730591 324.645386,271.878754 323.932739,277.916901 
	C322.619324,289.045746 320.853882,300.120544 319.371613,311.230499 
	C318.488220,317.851654 318.019012,324.534760 316.952393,331.123444 
	C314.781830,344.531433 312.601257,357.948181 309.930817,371.262238 
	C306.544647,388.144653 302.781738,404.954834 298.935974,421.739929 
	C297.687714,427.188171 295.668304,432.459747 294.000854,438.242249 
z"/>
</svg>