<svg version="1.1" id="Layer_1" xmlns="http://www.w3.org/2000/svg" xmlns:xlink="http://www.w3.org/1999/xlink" x="0px" y="0px" width="250" viewBox="0 0 250 246.818" enable-background="new 0 0 550 543" xml:space="preserve" height="246.818"><path fill="#000000" opacity="0.000000" stroke="none" d="M125 247.273H0.455c0 -73.798 0 -147.596 0.186 -221.604 0.971 2.46 1.609 5.184 2.583 7.782 0.965 2.574 1.851 5.368 3.552 7.418 1.509 1.817 3.983 2.97 6.217 4.021 5.244 2.467 10.59 4.716 15.91 7.018 8.359 3.617 16.7 7.279 25.105 10.786 8.669 3.617 17.534 6.795 25.615 11.692 4.49 2.721 7.825 6.525 9.573 11.451 1.385 3.902 2.406 7.951 3.323 11.996 0.989 4.366 1.821 8.78 2.443 13.214 0.772 5.503 1.189 11.055 1.885 16.57 0.831 6.594 1.799 13.17 2.699 19.755 0.44 3.22 0.774 6.456 1.307 9.659 0.699 4.201 1.585 8.371 2.321 12.567 1.005 5.72 1.752 11.492 2.962 17.167 1.566 7.344 3.303 14.663 5.295 21.902 1.813 6.59 3.96 13.095 6.164 19.568 1.332 3.914 3.074 7.686 4.59 11.538 0.978 2.485 1.881 4.999 2.818 7.5M11.352 71.329c0.027 0.981 -0.144 2.018 0.117 2.932 1.1 3.844 2.212 7.692 3.541 11.461 1.498 4.246 3.261 8.398 4.86 12.609 2.414 6.356 6.286 11.585 12.016 15.295 6.904 4.469 14.791 6.479 22.589 8.612 6.688 1.83 13.472 3.306 20.175 5.087 1.145 0.305 2.657 1.14 3.023 2.102 1.034 2.724 1.562 5.641 2.47 9.187l-35.839 -3.325c0.676 1.615 0.893 2.633 1.455 3.398 5.227 7.104 10.402 14.251 15.838 21.193 2.188 2.794 4.933 5.167 7.541 7.606 0.672 0.628 1.782 1.08 2.702 1.1 4.769 0.108 9.541 0.015 14.312 0.061 4.27 0.041 5.204 0.796 6.237 4.823 1.495 5.827 1.598 5.655 -4.113 7.455 -2.049 0.645 -4.063 1.403 -6.455 2.236 7.493 10.988 15.232 21.038 26.065 28.32 0.235 -0.762 0.237 -1.346 0.086 -1.888 -0.506 -1.825 -1.179 -3.611 -1.586 -5.457 -1.262 -5.712 -2.522 -11.427 -3.614 -17.173 -1.317 -6.93 -2.52 -13.883 -3.661 -20.844 -0.859 -5.238 -1.514 -10.509 -2.316 -15.757 -1.023 -6.695 -2.119 -13.379 -3.152 -20.072 -0.641 -4.15 -1.153 -8.322 -1.853 -12.462 -0.66 -3.902 -1.31 -7.822 -2.301 -11.646 -0.909 -3.507 -1.765 -7.187 -3.546 -10.27 -2.563 -4.433 -6.663 -7.638 -11.206 -10.012 -5.491 -2.87 -11.086 -5.551 -16.713 -8.147 -7.988 -3.685 -16.043 -7.225 -24.076 -10.813 -6.843 -3.056 -13.681 -6.125 -20.553 -9.115 -1.601 -0.697 -3.33 -1.1 -5.271 -1.725 0.202 2.292 0.164 4.105 0.558 5.819 0.702 3.046 1.666 6.032 2.671 9.41" stroke-width="0.45454545454545453"/><path fill="#000000" opacity="0.000000" stroke="none" d="M250.455 25.455v221.818c-41.374 0 -82.748 0 -124.333 -0.172 1.5 -4.561 3.261 -8.932 4.906 -13.345 1.545 -4.144 3.107 -8.291 4.408 -12.515 1.52 -4.934 2.615 -10 4.161 -14.925 2.368 -7.541 4.28 -15.172 5.549 -22.975 0.765 -4.7 1.777 -9.359 2.573 -14.055 0.971 -5.73 1.866 -11.473 2.732 -17.22 1.242 -8.238 2.471 -16.478 3.626 -24.729 0.973 -6.95 1.75 -13.927 2.764 -20.87 1.004 -6.875 2.001 -13.779 4.597 -20.288 1.929 -4.838 4.893 -9.145 9.511 -11.541 7.675 -3.98 15.606 -7.483 23.523 -10.976 7.655 -3.379 15.452 -6.437 23.143 -9.738 6.797 -2.918 13.581 -5.875 20.28 -9.01 4.058 -1.899 7.782 -4.276 8.967 -9.144 0.774 -3.176 1.763 -6.301 2.712 -9.432 0.106 -0.352 0.579 -0.592 0.882 -0.885M201.833 143.465c1.305 -1.78 2.717 -3.492 3.886 -5.356 1.225 -1.954 0.768 -2.75 -1.505 -2.625 -3.49 0.191 -6.97 0.566 -10.451 0.883 -3.258 0.296 -6.513 0.629 -9.771 0.926 -4.298 0.392 -8.597 0.764 -13.342 1.185 0.627 -2.533 1.256 -4.538 1.599 -6.591 0.485 -2.906 2.282 -4.389 4.951 -5.049 4.398 -1.088 8.787 -2.218 13.212 -3.184 9.295 -2.028 18.408 -4.575 26.926 -8.932 4.473 -2.288 7.78 -5.963 10.605 -9.894 2.082 -2.898 3.343 -6.424 4.741 -9.766 1.373 -3.282 2.657 -6.629 3.623 -10.047 1.625 -5.749 3.019 -11.565 4.41 -17.376 0.88 -3.674 1.576 -7.392 2.461 -11.594 -1.563 0.376 -2.44 0.477 -3.228 0.796 -2.49 1.009 -4.956 2.076 -7.414 3.162 -7.39 3.264 -14.797 6.49 -22.148 9.839 -7.276 3.315 -14.434 6.894 -21.754 10.106 -6 2.633 -12.009 5.22 -17.274 9.173 -3.17 2.38 -5.757 5.175 -7.387 9.042 -2.172 5.154 -2.733 10.605 -3.92 15.935 -1.021 4.586 -1.565 9.279 -2.329 13.923 -0.598 3.63 -1.264 7.249 -1.799 10.887 -0.42 2.856 -0.602 5.747 -1.041 8.6 -0.972 6.327 -2.023 12.642 -3.073 18.958 -0.724 4.349 -1.46 8.697 -2.266 13.031 -0.536 2.88 -1.2 5.738 -1.82 8.603a12672.273 12672.273 0 0 1 -4.234 19.501c-0.266 1.221 -0.566 2.436 -0.85 3.654l0.741 0.395c10.473 -7.475 18.224 -17.442 25.482 -28.15 -0.742 -0.515 -1.205 -1.003 -1.768 -1.199 -2.335 -0.81 -4.686 -1.583 -7.06 -2.273 -2.011 -0.585 -3.285 -1.411 -2.347 -3.854 0.518 -1.349 0.41 -2.961 1.025 -4.243 0.525 -1.092 1.524 -2.245 2.599 -2.709 1.298 -0.56 2.896 -0.543 4.368 -0.564 4.468 -0.062 8.937 -0.009 13.406 -0.038 0.639 -0.004 1.508 0.013 1.878 -0.365 3.809 -3.881 7.72 -7.686 11.237 -11.823 3.421 -4.023 6.417 -8.409 9.629 -12.969" stroke-width="0.45454545454545453"/><path fill="#FFFFFF" opacity="1.000000" stroke="none" d="M250.455 25.242c-0.303 0.505 -0.776 0.745 -0.882 1.097 -0.949 3.13 -1.938 6.255 -2.712 9.432 -1.186 4.868 -4.909 7.245 -8.967 9.144 -6.698 3.135 -13.482 6.092 -20.28 9.009 -7.691 3.301 -15.487 6.36 -23.143 9.739 -7.916 3.494 -15.847 6.997 -23.523 10.977 -4.618 2.395 -7.582 6.703 -9.511 11.541 -2.595 6.509 -3.593 13.412 -4.597 20.288 -1.014 6.943 -1.791 13.92 -2.763 20.87 -1.155 8.25 -2.384 16.491 -3.626 24.729 -0.866 5.747 -1.761 11.49 -2.733 17.22 -0.795 4.695 -1.808 9.355 -2.572 14.055 -1.269 7.804 -3.18 15.435 -5.549 22.975 -1.546 4.925 -2.642 9.99 -4.161 14.925 -1.3 4.224 -2.863 8.37 -4.408 12.515 -1.645 4.414 -3.407 8.784 -5.118 13.345 -0.203 0.172 -0.405 0.172 -0.759 0.172 -1.088 -2.501 -1.991 -5.015 -2.969 -7.5 -1.516 -3.852 -3.258 -7.625 -4.59 -11.538 -2.204 -6.473 -4.351 -12.978 -6.164 -19.568 -1.992 -7.239 -3.729 -14.558 -5.295 -21.902 -1.21 -5.675 -1.957 -11.447 -2.962 -17.167 -0.737 -4.195 -1.623 -8.365 -2.321 -12.567 -0.533 -3.203 -0.867 -6.44 -1.307 -9.659 -0.9 -6.585 -1.868 -13.161 -2.699 -19.755 -0.695 -5.515 -1.113 -11.067 -1.885 -16.57 -0.622 -4.433 -1.455 -8.847 -2.443 -13.213 -0.916 -4.045 -1.937 -8.094 -3.322 -11.996 -1.749 -4.926 -5.083 -8.73 -9.573 -11.451 -8.08 -4.897 -16.945 -8.075 -25.614 -11.692 -8.405 -3.508 -16.746 -7.169 -25.105 -10.786 -5.32 -2.302 -10.667 -4.551 -15.91 -7.018 -2.234 -1.051 -4.709 -2.204 -6.217 -4.021 -1.701 -2.05 -2.586 -4.844 -3.552 -7.417 -0.975 -2.598 -1.612 -5.322 -2.583 -7.994C0.455 22.869 0.455 20.284 0.65 17.485a69.091 69.091 0 0 1 7.999 1.162c8.325 1.705 16.64 3.464 24.96 5.197 6.958 1.45 13.906 2.945 20.877 4.324 7.346 1.452 14.741 2.669 22.067 4.212a80.364 80.364 0 0 0 19.55 1.685c0.533 -0.019 1.281 -0.247 1.542 -0.637 2.504 -3.733 4.733 -7.663 7.408 -11.264 5.191 -6.987 10.624 -13.795 15.94 -20.691 0.21 -0.273 0.251 -0.676 0.371 -1.019 2.283 0 4.565 0 6.93 0.135 1.714 1.516 3.566 2.71 4.93 4.319 2.425 2.86 4.612 5.929 6.795 8.985 3.825 5.358 7.629 10.734 11.332 16.177 2.556 3.759 5.975 5.204 10.401 4.465 5.44 -0.909 10.895 -1.73 16.316 -2.74 6.627 -1.235 13.225 -2.621 19.833 -3.952 4.668 -0.94 9.337 -1.871 13.996 -2.85 7.592 -1.595 15.166 -3.281 22.77 -4.82C239.91 19.112 245.19 18.233 250.455 17.273zm-116.817 173.764c0.757 -2.433 1.675 -4.829 2.243 -7.305 1.748 -7.63 3.459 -15.27 4.998 -22.945 1.214 -6.052 2.205 -12.15 3.191 -18.245 0.485 -2.995 0.698 -6.032 1.1 -9.042 0.674 -5.05 1.476 -10.084 2.073 -15.142 0.324 -2.745 0.215 -5.539 0.513 -8.288 0.679 -6.259 1.603 -12.492 2.209 -18.756 0.482 -4.984 0.739 -9.995 0.921 -15.001 0.247 -6.777 0.457 -13.561 0.41 -20.34 -0.017 -2.453 -0.66 -4.943 -1.3 -7.341 -1.67 -6.253 -5.035 -11.71 -8.472 -17.095 -1.539 -2.412 -3.312 -4.68 -5.07 -6.943 -2.364 -3.04 -4.494 -6.363 -7.301 -8.934 -4.863 -4.453 -4.514 -3.352 -7.824 0.286 -2.257 2.482 -4.61 4.905 -6.602 7.59 -2.555 3.445 -4.855 7.089 -7.144 10.721 -1.551 2.46 -3.21 4.928 -4.255 7.612 -1.335 3.435 -2.335 7.045 -3.041 10.665a45 45 0 0 0 -0.814 9.573c0.144 6.212 0.633 12.415 0.985 18.622 0.144 2.539 0.224 5.085 0.467 7.614 0.717 7.466 1.45 14.932 2.273 22.387 0.844 7.653 1.769 15.297 2.72 22.938 0.866 6.964 1.535 13.968 2.795 20.863 1.722 9.429 3.668 18.834 5.988 28.132 2.041 8.179 4.679 16.212 7.152 24.279 0.92 3 2.123 5.913 3.43 9.508 0.622 -1.122 0.925 -1.515 1.074 -1.96 2.14 -6.408 4.275 -12.818 6.367 -19.242 0.404 -1.241 0.615 -2.545 0.916 -4.21" stroke-width="0.45454545454545453"/><path fill="#000000" opacity="0.000000" stroke="none" d="M250.455 17.06c-5.264 1.174 -10.545 2.053 -15.788 3.115 -7.604 1.54 -15.177 3.226 -22.77 4.821 -4.659 0.979 -9.329 1.91 -13.996 2.85 -6.608 1.33 -13.206 2.717 -19.833 3.952 -5.42 1.01 -10.877 1.83 -16.316 2.74 -4.426 0.74 -7.845 -0.706 -10.402 -4.465 -3.702 -5.444 -7.506 -10.819 -11.332 -16.177 -2.182 -3.056 -4.369 -6.126 -6.794 -8.985 -1.364 -1.609 -3.216 -2.803 -4.718 -4.319C169.243 0.455 209.849 0.455 250.455 0.455z" stroke-width="0.45454545454545453"/><path fill="#000000" opacity="0.000000" stroke="none" d="M121.15 0.455c0.094 0.343 0.053 0.746 -0.158 1.019 -5.316 6.895 -10.748 13.704 -15.94 20.691 -2.675 3.601 -4.905 7.531 -7.408 11.264 -0.261 0.39 -1.01 0.618 -1.542 0.637 -6.583 0.236 -13.085 -0.323 -19.55 -1.685 -7.326 -1.544 -14.72 -2.76 -22.066 -4.212 -6.972 -1.378 -13.92 -2.874 -20.877 -4.324 -8.32 -1.733 -16.635 -3.492 -24.96 -5.197C6.063 18.118 3.448 17.727 0.65 17.273 0.455 11.675 0.455 6.077 0.455 0.455z" stroke-width="0.45454545454545453"/><path fill="#FFFFFF" opacity="1.000000" stroke="none" d="M11.276 71.145c-0.93 -3.195 -1.894 -6.18 -2.595 -9.226 -0.395 -1.714 -0.356 -3.527 -0.558 -5.819 1.941 0.625 3.67 1.029 5.271 1.725 6.872 2.99 13.71 6.059 20.553 9.115 8.033 3.588 16.088 7.127 24.076 10.813 5.627 2.595 11.222 5.277 16.713 8.147 4.543 2.375 8.643 5.579 11.206 10.012 1.782 3.082 2.638 6.763 3.546 10.27 0.991 3.825 1.641 7.745 2.301 11.646 0.7 4.14 1.212 8.311 1.853 12.462 1.033 6.693 2.129 13.377 3.152 20.072 0.802 5.248 1.456 10.519 2.316 15.757 1.141 6.961 2.344 13.914 3.661 20.844 1.092 5.745 2.351 11.461 3.614 17.173 0.408 1.845 1.08 3.632 1.586 5.457 0.15 0.542 0.149 1.126 -0.086 1.888 -10.833 -7.282 -18.573 -17.332 -26.065 -28.32 2.392 -0.833 4.406 -1.59 6.455 -2.236 5.711 -1.8 5.609 -1.628 4.113 -7.455 -1.034 -4.028 -1.967 -4.783 -6.237 -4.824 -4.77 -0.045 -9.543 0.047 -14.312 -0.061 -0.92 -0.02 -2.03 -0.472 -2.701 -1.1 -2.609 -2.439 -5.354 -4.812 -7.541 -7.606 -5.436 -6.942 -10.611 -14.089 -15.839 -21.193 -0.562 -0.765 -0.779 -1.783 -1.455 -3.398l35.838 3.325c-0.908 -3.546 -1.435 -6.463 -2.47 -9.187 -0.365 -0.961 -1.878 -1.797 -3.023 -2.102 -6.702 -1.781 -13.486 -3.257 -20.175 -5.087 -7.798 -2.134 -15.685 -4.143 -22.589 -8.612 -5.73 -3.71 -9.602 -8.939 -12.016 -15.295 -1.599 -4.211 -3.362 -8.363 -4.86 -12.609 -1.33 -3.768 -2.442 -7.616 -3.541 -11.46 -0.261 -0.914 -0.09 -1.951 -0.193 -3.116" stroke-width="0.45454545454545453"/><path fill="#FFFFFF" opacity="1.000000" stroke="none" d="M201.818 143.632c-3.197 4.393 -6.193 8.779 -9.614 12.802 -3.518 4.136 -7.428 7.942 -11.238 11.823 -0.37 0.377 -1.24 0.36 -1.878 0.365 -4.468 0.029 -8.938 -0.025 -13.406 0.038 -1.472 0.02 -3.07 0.003 -4.368 0.563 -1.075 0.464 -2.074 1.618 -2.599 2.71 -0.616 1.282 -0.507 2.894 -1.025 4.243 -0.939 2.442 0.335 3.269 2.347 3.854 2.374 0.69 4.725 1.462 7.06 2.273 0.564 0.195 1.026 0.684 1.768 1.2 -7.258 10.707 -15.009 20.674 -25.482 28.15l-0.741 -0.396c0.284 -1.218 0.584 -2.432 0.85 -3.654q2.125 -9.749 4.234 -19.501c0.62 -2.865 1.283 -5.722 1.82 -8.603 0.807 -4.334 1.543 -8.682 2.266 -13.031 1.05 -6.315 2.101 -12.631 3.073 -18.958 0.439 -2.852 0.62 -5.744 1.041 -8.6 0.535 -3.639 1.201 -7.258 1.799 -10.887 0.765 -4.644 1.308 -9.336 2.329 -13.923 1.186 -5.33 1.748 -10.781 3.92 -15.935 1.63 -3.867 4.217 -6.662 7.387 -9.042 5.265 -3.953 11.274 -6.54 17.274 -9.173 7.32 -3.212 14.477 -6.791 21.754 -10.106 7.351 -3.349 14.758 -6.575 22.148 -9.839 2.457 -1.086 4.924 -2.153 7.414 -3.162 0.789 -0.32 1.665 -0.42 3.228 -0.796 -0.885 4.202 -1.582 7.92 -2.461 11.594 -1.391 5.812 -2.785 11.627 -4.41 17.376 -0.966 3.419 -2.25 6.765 -3.623 10.047 -1.399 3.342 -2.659 6.868 -4.742 9.766 -2.825 3.932 -6.132 7.606 -10.605 9.894 -8.518 4.357 -17.63 6.905 -26.926 8.932 -4.425 0.965 -8.814 2.095 -13.212 3.184 -2.67 0.66 -4.466 2.143 -4.951 5.049 -0.343 2.053 -0.972 4.058 -1.599 6.591 4.745 -0.42 9.045 -0.793 13.342 -1.185 3.258 -0.297 6.513 -0.63 9.771 -0.926 3.482 -0.317 6.961 -0.692 10.451 -0.883 2.274 -0.125 2.73 0.67 1.505 2.625 -1.169 1.865 -2.581 3.577 -3.9 5.523" stroke-width="0.45454545454545453"/><path fill="#000000" opacity="0.000000" stroke="none" d="M133.636 199.201c-0.3 1.47 -0.511 2.774 -0.915 4.015 -2.092 6.424 -4.228 12.834 -6.367 19.242 -0.149 0.445 -0.452 0.838 -1.074 1.96 -1.307 -3.595 -2.51 -6.508 -3.43 -9.508 -2.474 -8.067 -5.111 -16.1 -7.152 -24.279 -2.32 -9.298 -4.266 -18.703 -5.988 -28.132 -1.259 -6.895 -1.928 -13.899 -2.795 -20.863 -0.95 -7.641 -1.875 -15.285 -2.72 -22.938 -0.823 -7.455 -1.556 -14.92 -2.273 -22.387 -0.243 -2.53 -0.323 -5.075 -0.467 -7.614 -0.351 -6.207 -0.841 -12.41 -0.985 -18.622a45 45 0 0 1 0.814 -9.573c0.706 -3.62 1.705 -7.231 3.041 -10.665 1.044 -2.685 2.704 -5.152 4.255 -7.612 2.29 -3.633 4.589 -7.276 7.144 -10.721 1.992 -2.685 4.345 -5.109 6.602 -7.59 3.31 -3.639 2.961 -4.74 7.824 -0.287 2.808 2.571 4.938 5.894 7.301 8.934 1.759 2.262 3.532 4.531 5.07 6.942 3.438 5.386 6.803 10.843 8.472 17.096 0.64 2.397 1.283 4.888 1.3 7.34 0.048 6.779 -0.162 13.563 -0.409 20.34 -0.183 5.005 -0.44 10.017 -0.922 15.001 -0.606 6.265 -1.53 12.498 -2.209 18.756 -0.298 2.749 -0.189 5.544 -0.512 8.288 -0.597 5.059 -1.4 10.093 -2.073 15.142 -0.402 3.01 -0.615 6.048 -1.1 9.042 -0.986 6.095 -1.977 12.193 -3.191 18.245 -1.539 7.674 -3.25 15.315 -4.998 22.944 -0.567 2.476 -1.485 4.873 -2.243 7.501" stroke-width="0.45454545454545453"/></svg>