<?xml version="1.0" encoding="UTF-8"?>
<!DOCTYPE svg PUBLIC "-//W3C//DTD SVG 1.1//EN" "http://www.w3.org/Graphics/SVG/1.1/DTD/svg11.dtd">
<svg xmlns="http://www.w3.org/2000/svg" version="1.1" width="550px" height="543px" style="shape-rendering:geometricPrecision; text-rendering:geometricPrecision; image-rendering:optimizeQuality; fill-rule:evenodd; clip-rule:evenodd" xmlns:xlink="http://www.w3.org/1999/xlink">
<g><path style="opacity:1" fill="#f9faf9" d="M 268.5,-0.5 C 272.167,-0.5 275.833,-0.5 279.5,-0.5C 286.387,3.54833 292.221,8.88167 297,15.5C 309.056,31.8901 320.723,48.5568 332,65.5C 335.604,70.4549 340.271,73.7882 346,75.5C 365.234,73.0444 384.401,69.8777 403.5,66C 452.121,55.8425 500.787,46.0092 549.5,36.5C 549.5,40.8333 549.5,45.1667 549.5,49.5C 546.807,59.4275 543.974,69.4275 541,79.5C 539.139,81.8877 537.806,84.5544 537,87.5C 529.314,93.1942 521.148,98.0275 512.5,102C 470.051,119.814 427.717,137.814 385.5,156C 366.752,164.413 354.918,178.58 350,198.5C 348.241,206.479 346.574,214.479 345,222.5C 339.292,262.453 333.959,302.453 329,342.5C 319.255,411.49 301.422,478.157 275.5,542.5C 274.833,542.5 274.167,542.5 273.5,542.5C 256.097,499.357 242.264,455.024 232,409.5C 227.71,387.558 223.71,365.558 220,343.5C 215.135,303.109 209.801,262.776 204,222.5C 202.239,205.218 196.906,189.218 188,174.5C 180.967,166.796 172.8,160.63 163.5,156C 123.731,138.449 83.7313,121.449 43.5,105C 32.2335,100.474 21.7335,94.6402 12,87.5C 6.58656,75.1543 2.41989,62.4877 -0.5,49.5C -0.5,45.1667 -0.5,40.8333 -0.5,36.5C 51.5431,46.6764 103.543,57.1764 155.5,68C 174.281,72.3094 193.281,73.976 212.5,73C 225.161,52.9911 238.661,33.4911 253,14.5C 257.401,8.59698 262.568,3.59698 268.5,-0.5 Z M 271.5,44.5 C 274.425,44.4598 277.091,45.2932 279.5,47C 301.316,69.1319 317.816,94.6319 329,123.5C 330.948,133.566 331.782,143.732 331.5,154C 330.844,172.507 330.011,191.007 329,209.5C 325.133,259.101 319.133,308.434 311,357.5C 303.053,403.328 291.053,447.995 275,491.5C 273.08,488.661 271.413,485.661 270,482.5C 248.049,414.416 233.383,344.749 226,273.5C 221.659,232.915 218.492,192.248 216.5,151.5C 216.821,135.393 220.321,120.06 227,105.5C 238.993,83.0198 253.827,62.6865 271.5,44.5 Z"/></g>
<g><path style="opacity:1" fill="#f9faf9" d="M 16.5,122.5 C 18.9267,122.523 21.26,123.023 23.5,124C 70.955,144.372 117.955,165.705 164.5,188C 173.636,193.805 181.469,200.972 188,209.5C 193.611,226.487 197.944,243.821 201,261.5C 207.125,305.25 213.792,348.917 221,392.5C 225.384,416.367 230.551,440.033 236.5,463.5C 234.692,463.509 233.025,463.009 231.5,462C 210.636,445.131 193.303,425.131 179.5,402C 186.188,398.767 193.188,396.1 200.5,394C 201.579,393.044 202.745,392.211 204,391.5C 203.313,385.414 201.98,379.414 200,373.5C 197.656,371.226 194.822,370.059 191.5,370C 178.5,369.667 165.5,369.333 152.5,369C 130.436,347.794 111.769,324.128 96.5,298C 98.6294,296.897 100.963,296.397 103.5,296.5C 127.069,299.703 150.736,301.703 174.5,302.5C 173.697,294.6 171.363,287.267 167.5,280.5C 163.616,278.705 159.616,277.205 155.5,276C 133.46,271.74 111.794,266.073 90.5,259C 68.8241,252.322 52.9907,238.822 43,218.5C 30.4062,187.55 21.5729,155.55 16.5,122.5 Z"/></g>
<g><path style="opacity:1" fill="#f9faf9" d="M 528.5,122.5 C 529.833,122.5 531.167,122.5 532.5,122.5C 527.429,155.545 518.596,187.545 506,218.5C 496.104,238.878 480.27,252.378 458.5,259C 432.928,266.612 407.261,273.779 381.5,280.5C 377.637,287.267 375.303,294.6 374.5,302.5C 398.254,301.583 421.921,299.583 445.5,296.5C 451.672,295.156 453.505,297.156 451,302.5C 435.102,326.411 416.935,348.577 396.5,369C 383.5,369.333 370.5,369.667 357.5,370C 354.178,370.059 351.344,371.226 349,373.5C 347.02,379.414 345.687,385.414 345,391.5C 352.072,395.304 359.572,398.137 367.5,400C 368.167,400.667 368.833,401.333 369.5,402C 355.726,425.105 338.393,445.105 317.5,462C 315.975,463.009 314.308,463.509 312.5,463.5C 318.452,440.025 323.618,416.358 328,392.5C 335.208,348.917 341.875,305.25 348,261.5C 351.056,243.821 355.389,226.487 361,209.5C 368.691,198.814 378.524,190.647 390.5,185C 436.234,163.295 482.234,142.461 528.5,122.5 Z"/></g>
</svg>
